<svg xmlns="http://www.w3.org/2000/svg" viewBox="0 0 48 48" id="heart">
  <g fill="#492b6d" class="color000000 svgShape">
    <path d="M24 27a1 1 0 0 1-.92-.68L19.7 16.26l-2.87 4.29A1 1 0 0 1 16 21H3a1 1 0 0 1 0-2h12.46l3.71-5.55a1 1 0 0 1 1-.44 1 1 0 0 1 .82.67l3.14 9.41 3-7.46A1 1 0 0 1 28 15a1 1 0 0 1 .93.65l1.87 5 .22-.88A1 1 0 0 1 32 19h13a1 1 0 0 1 0 2H32.78L32 24.24a1 1 0 0 1-1.91.11L28 18.77l-3 7.6a1 1 0 0 1-1 .63Z" fill="#492b6d" class="color000000 svgShape"></path>
    <path d="M4.9 17a1 1 0 0 0 .92-.83 10.18 10.18 0 0 1 2.9-5.8 10.59 10.59 0 0 1 12.8-1.57 7.89 7.89 0 0 1 1.76 1.56 1 1 0 0 0 1.44 0 7.89 7.89 0 0 1 1.76-1.56 10.59 10.59 0 0 1 12.8 1.57 10.18 10.18 0 0 1 2.9 5.8 1 1 0 0 0 .92.83h.15a.93.93 0 0 0 .92-1.07A12.3 12.3 0 0 0 24 8.3a12.3 12.3 0 0 0-20.17 7.63.93.93 0 0 0 .92 1.07zm36.44 6a1 1 0 0 0-.83.45C41 23.45 24.35 39.8 24 40.23c-.39-.47-17-16.74-16.51-16.78a1 1 0 0 0-.83-.45 1 1 0 0 0-.83 1.58c-.65-.09 17 17.28 17.46 17.77a1 1 0 0 0 1.42 0c.46-.54 18-17.8 17.46-17.77a1 1 0 0 0-.83-1.58z" fill="#492b6d" class="color000000 svgShape"></path>
  </g>
</svg>
