<svg xmlns="http://www.w3.org/2000/svg" id="glucose" enable-background="new 0 0 500 500" viewBox="0 0 500 500">
  <path d="M176.4,358.7h36.8v67.7c0,11.8,9.6,21.4,21.4,21.4h31c11.8,0,21.4-9.6,21.4-21.4v-67.7h36.8c24.3,0,44-19.7,44-44V96.2
		c0-24.3-19.7-44-44-44H176.4c-24.3,0-44,19.7-44,44v218.6C132.4,339,152.1,358.7,176.4,358.7z M270.5,426.5c0,2.8-2.3,5-5,5h-31
		c-2.8,0-5-2.3-5-5v-67.7h1.2v-25c0-2.8,2.3-5,5-5h29.8c2.8,0,5,2.3,5,5V426.5z M148.7,96.2c0-15.3,12.4-27.7,27.7-27.7h147.3
		c15.3,0,27.7,12.4,27.7,27.7v218.6c0,15.3-12.4,27.7-27.7,27.7H288v-8.7c0-11.8-9.6-21.4-21.4-21.4h-1.2h-29.8h-1.2
		c-11.8,0-21.4,9.6-21.4,21.4v8.7h-36.8c-15.3,0-27.7-12.4-27.7-27.7V96.2z" fill="#292492" class="color000000 svgShape"></path>
  <path d="M193.2 256.4h113.6c15.2 0 27.6-12.4 27.6-27.6V115.2c0-15.2-12.4-27.6-27.6-27.6H193.2c-15.2 0-27.6 12.4-27.6 27.6v113.6C165.6 244 178 256.4 193.2 256.4zM181.9 115.2c0-6.2 5.1-11.3 11.3-11.3h113.6c6.2 0 11.3 5.1 11.3 11.3v113.6c0 6.2-5.1 11.3-11.3 11.3H193.2c-6.2 0-11.3-5.1-11.3-11.3V115.2zM201.1 261.2c-12 0-21.8 9.8-21.8 21.8 0 12 9.8 21.8 21.8 21.8 12 0 21.8-9.8 21.8-21.8C223 271 213.2 261.2 201.1 261.2zM201.1 288.6c-3 0-5.5-2.5-5.5-5.5 0-3 2.5-5.5 5.5-5.5 3 0 5.5 2.5 5.5 5.5C206.6 286.1 204.2 288.6 201.1 288.6zM298.9 261.2c-12 0-21.8 9.8-21.8 21.8 0 12 9.8 21.8 21.8 21.8 12 0 21.8-9.8 21.8-21.8C320.7 271 310.9 261.2 298.9 261.2zM298.9 288.6c-3 0-5.5-2.5-5.5-5.5 0-3 2.5-5.5 5.5-5.5 3 0 5.5 2.5 5.5 5.5C304.4 286.1 301.9 288.6 298.9 288.6z" fill="#292492" class="color000000 svgShape"></path>
  <path d="M206.9 166.6c13.3-13.3 26.6-26.6 39.8-39.8 7.4-7.4-4.1-19-11.5-11.5-13.3 13.3-26.6 26.6-39.8 39.8C187.9 162.5 199.5 174.1 206.9 166.6zM226.8 211.5c21.4-21.4 42.8-42.8 64.1-64.1 7.4-7.4-4.1-19-11.5-11.5-21.4 21.4-42.8 42.8-64.1 64.1C207.8 207.4 219.4 219 226.8 211.5z" fill="#292492" class="color000000 svgShape"></path>
</svg>
