<svg xmlns="http://www.w3.org/2000/svg" viewBox="0 0 48 48" id="Heart">
  <path fill-rule="evenodd" d="M24 0C10.751 0 0 10.751 0 24s10.751 24 24 24 24-10.751 24-24S37.249 0 24 0zm0 1c12.708 0 23 10.292 23 23 0 12.709-10.292 23-23 23S1 36.709 1 24C1 11.292 11.292 1 24 1zm-7.021 17a.5.5 0 0 0-.436.307l-2.379 5.691h-4.66a.5.5 0 1 0 0 1h4.992a.5.5 0 0 0 .461-.307l1.994-4.77 3.578 10.735a.5.5 0 0 0 .944.018l2.12-5.676h2.41a.5.5 0 0 0 .425-.234l1.918-3.076 2.181 6.96a.5.5 0 0 0 .9.116l2.346-3.766h4.723a.5.5 0 1 0 0-1h-5a.5.5 0 0 0-.424.236l-1.918 3.077-2.18-6.961a.5.5 0 0 0-.902-.116l-2.345 3.764h-2.48a.5.5 0 0 0-.47.326l-1.746 4.674-3.552-10.656a.5.5 0 0 0-.5-.342z" color="#000" font-family="sans-serif" font-weight="400" overflow="visible" style="line-height:normal;text-indent:0;text-align:start;text-decoration-line:none;text-decoration-style:solid;text-decoration-color:#000;text-transform:none;block-progression:tb;isolation:auto;mix-blend-mode:normal" fill="#292492" class="color000000 svgShape"></path>
</svg>
